<svg width="64" height="66" viewBox="0 0 64 66" fill="none" xmlns="http://www.w3.org/2000/svg">
<path d="M29.843 0.0708505C47.4602 -1.11447 62.6612 12.7143 63.7672 30.9326C64.8735 49.1511 51.4642 64.8371 33.8422 65.9388C16.2769 67.0373 1.16626 53.2273 0.0637838 35.0677C-1.03873 16.908 12.283 1.25236 29.843 0.0708505ZM15.368 28.6689C20.5088 28.6747 26.9078 28.524 31.9512 28.7681C30.5165 31.8127 28.7917 34.4525 27.4868 37.2271C20.4184 37.2137 12.6467 37.369 5.63762 37.1479C11.096 27.3377 17.9027 15.8463 22.881 6.01001C15.4844 8.86156 9.94531 13.7652 6.63352 21.2825C3.57807 28.1298 3.32835 35.9632 5.94115 43.0038C8.57232 50.1739 13.8476 55.972 20.6092 59.1247C22.6404 60.0745 25.109 60.7066 27.2897 61.3184C28.4325 59.3881 30.5622 55.9878 31.464 54.0948C33.9054 49.7175 38.8734 41.4334 40.8273 37.2075L32.0036 37.1672C32.9196 34.9742 35.1364 30.6442 36.5164 28.6974C43.622 28.6735 51.0652 28.5455 58.1372 28.7823C56.7505 31.3629 54.9982 34.8208 53.4757 37.2218L45.6346 37.294C41.1631 45.4628 36.6507 53.6072 32.0977 61.7275C40.3014 61.16 47.1876 58.3622 52.7141 51.8338C57.5973 46.1307 60.0733 38.6456 59.5906 31.0449C59.0435 23.4029 55.5768 16.3003 49.9559 11.306C43.4104 5.45372 36.9303 4.27806 28.6865 4.64304C24.752 11.6312 18.7271 21.6556 15.368 28.6689Z" fill="white"/>
</svg>
